<mxfile host="app.diagrams.net" modified="2023-03-29T01:39:07.535Z" agent="Mozilla/5.0 (Windows NT 10.0; Win64; x64) AppleWebKit/537.36 (KHTML, like Gecko) Chrome/111.0.0.0 Safari/537.36" etag="QqL9RBm4LFZKAFJGtB2J" version="21.1.1" type="github">
  <diagram name="PÃ¡gina-1" id="HapBDlwufEZwqd7z1itn">
    <mxGraphModel dx="835" dy="863" grid="0" gridSize="10" guides="1" tooltips="1" connect="1" arrows="1" fold="1" page="0" pageScale="1" pageWidth="827" pageHeight="1169" math="0" shadow="0">
      <root>
        <mxCell id="0" />
        <mxCell id="1" parent="0" />
        <mxCell id="F0aBMFggFQWQViYfeMY5-1" value="Diagrama de casos de uso - Gestionar Inventario" style="text;html=1;align=center;verticalAlign=middle;resizable=0;points=[];autosize=1;strokeColor=none;fillColor=none;fontSize=16;" vertex="1" parent="1">
          <mxGeometry x="-22" y="-69" width="367" height="31" as="geometry" />
        </mxCell>
        <mxCell id="F0aBMFggFQWQViYfeMY5-2" value="Bodeguero&lt;br&gt;Repartidor" style="shape=umlActor;verticalLabelPosition=bottom;verticalAlign=top;html=1;outlineConnect=0;fontSize=16;" vertex="1" parent="1">
          <mxGeometry x="-15" y="191" width="30" height="60" as="geometry" />
        </mxCell>
        <mxCell id="F0aBMFggFQWQViYfeMY5-3" value="Secretaria&lt;br&gt;Vendedor" style="shape=umlActor;verticalLabelPosition=bottom;verticalAlign=top;html=1;outlineConnect=0;fontSize=16;" vertex="1" parent="1">
          <mxGeometry x="-10" y="36" width="30" height="60" as="geometry" />
        </mxCell>
        <mxCell id="F0aBMFggFQWQViYfeMY5-4" value="Crear inventario" style="ellipse;whiteSpace=wrap;html=1;fontSize=16;" vertex="1" parent="1">
          <mxGeometry x="239" y="-23" width="120" height="80" as="geometry" />
        </mxCell>
        <mxCell id="F0aBMFggFQWQViYfeMY5-5" value="Modificar Inventario" style="ellipse;whiteSpace=wrap;html=1;fontSize=16;" vertex="1" parent="1">
          <mxGeometry x="239" y="75" width="120" height="80" as="geometry" />
        </mxCell>
        <mxCell id="F0aBMFggFQWQViYfeMY5-7" value="Listar inventario" style="ellipse;whiteSpace=wrap;html=1;fontSize=16;" vertex="1" parent="1">
          <mxGeometry x="239" y="171" width="120" height="80" as="geometry" />
        </mxCell>
        <mxCell id="F0aBMFggFQWQViYfeMY5-8" value="" style="endArrow=none;dashed=1;html=1;rounded=0;fontSize=12;startSize=8;endSize=8;curved=1;exitX=0.5;exitY=0.5;exitDx=0;exitDy=0;exitPerimeter=0;entryX=0;entryY=0.5;entryDx=0;entryDy=0;" edge="1" parent="1" source="F0aBMFggFQWQViYfeMY5-3" target="F0aBMFggFQWQViYfeMY5-4">
          <mxGeometry width="50" height="50" relative="1" as="geometry">
            <mxPoint x="175" y="216" as="sourcePoint" />
            <mxPoint x="225" y="166" as="targetPoint" />
          </mxGeometry>
        </mxCell>
        <mxCell id="F0aBMFggFQWQViYfeMY5-9" value="" style="endArrow=none;dashed=1;html=1;rounded=0;fontSize=12;startSize=8;endSize=8;curved=1;exitX=0.5;exitY=0.5;exitDx=0;exitDy=0;exitPerimeter=0;entryX=0.025;entryY=0.375;entryDx=0;entryDy=0;entryPerimeter=0;" edge="1" parent="1" source="F0aBMFggFQWQViYfeMY5-3" target="F0aBMFggFQWQViYfeMY5-7">
          <mxGeometry width="50" height="50" relative="1" as="geometry">
            <mxPoint x="15" y="76" as="sourcePoint" />
            <mxPoint x="185" y="157" as="targetPoint" />
          </mxGeometry>
        </mxCell>
        <mxCell id="F0aBMFggFQWQViYfeMY5-10" value="" style="endArrow=none;dashed=1;html=1;rounded=0;fontSize=12;startSize=8;endSize=8;curved=1;entryX=0;entryY=0.588;entryDx=0;entryDy=0;entryPerimeter=0;exitX=0.5;exitY=0.5;exitDx=0;exitDy=0;exitPerimeter=0;" edge="1" parent="1" source="F0aBMFggFQWQViYfeMY5-3" target="F0aBMFggFQWQViYfeMY5-5">
          <mxGeometry width="50" height="50" relative="1" as="geometry">
            <mxPoint x="18" y="86" as="sourcePoint" />
            <mxPoint x="195" y="167" as="targetPoint" />
          </mxGeometry>
        </mxCell>
        <mxCell id="F0aBMFggFQWQViYfeMY5-11" value="" style="endArrow=none;dashed=1;html=1;rounded=0;fontSize=12;startSize=8;endSize=8;curved=1;entryX=0;entryY=0.5;entryDx=0;entryDy=0;" edge="1" parent="1" source="F0aBMFggFQWQViYfeMY5-2" target="F0aBMFggFQWQViYfeMY5-7">
          <mxGeometry width="50" height="50" relative="1" as="geometry">
            <mxPoint x="175" y="216" as="sourcePoint" />
            <mxPoint x="225" y="166" as="targetPoint" />
          </mxGeometry>
        </mxCell>
        <mxCell id="F0aBMFggFQWQViYfeMY5-12" value="Entregar pedido" style="ellipse;whiteSpace=wrap;html=1;fontSize=16;" vertex="1" parent="1">
          <mxGeometry x="243" y="271" width="120" height="80" as="geometry" />
        </mxCell>
        <mxCell id="F0aBMFggFQWQViYfeMY5-13" value="" style="endArrow=none;dashed=1;html=1;rounded=0;fontSize=12;startSize=8;endSize=8;curved=1;entryX=0;entryY=0.5;entryDx=0;entryDy=0;" edge="1" parent="1" target="F0aBMFggFQWQViYfeMY5-12">
          <mxGeometry width="50" height="50" relative="1" as="geometry">
            <mxPoint x="25" y="227" as="sourcePoint" />
            <mxPoint x="235" y="176" as="targetPoint" />
          </mxGeometry>
        </mxCell>
        <mxCell id="F0aBMFggFQWQViYfeMY5-14" value="" style="endArrow=none;dashed=1;html=1;dashPattern=1 3;strokeWidth=2;rounded=0;fontSize=12;startSize=8;endSize=8;curved=1;exitX=1;exitY=0.5;exitDx=0;exitDy=0;entryX=1;entryY=0.5;entryDx=0;entryDy=0;" edge="1" parent="1" source="F0aBMFggFQWQViYfeMY5-4" target="F0aBMFggFQWQViYfeMY5-7">
          <mxGeometry width="50" height="50" relative="1" as="geometry">
            <mxPoint x="175" y="216" as="sourcePoint" />
            <mxPoint x="225" y="166" as="targetPoint" />
            <Array as="points">
              <mxPoint x="466" y="100" />
              <mxPoint x="540" y="113" />
            </Array>
          </mxGeometry>
        </mxCell>
        <mxCell id="F0aBMFggFQWQViYfeMY5-15" value="&amp;lt;&amp;lt;extend&amp;gt;&amp;gt;" style="text;html=1;align=center;verticalAlign=middle;resizable=0;points=[];autosize=1;strokeColor=none;fillColor=none;fontSize=16;" vertex="1" parent="1">
          <mxGeometry x="507" y="93" width="103" height="31" as="geometry" />
        </mxCell>
        <mxCell id="F0aBMFggFQWQViYfeMY5-16" value="" style="endArrow=none;dashed=1;html=1;dashPattern=1 3;strokeWidth=2;rounded=0;fontSize=12;startSize=8;endSize=8;curved=1;entryX=1;entryY=0;entryDx=0;entryDy=0;exitX=1;exitY=0;exitDx=0;exitDy=0;" edge="1" parent="1" source="F0aBMFggFQWQViYfeMY5-7" target="F0aBMFggFQWQViYfeMY5-5">
          <mxGeometry width="50" height="50" relative="1" as="geometry">
            <mxPoint x="361" y="212" as="sourcePoint" />
            <mxPoint x="379" y="166" as="targetPoint" />
            <Array as="points">
              <mxPoint x="405" y="159" />
              <mxPoint x="457" y="130" />
              <mxPoint x="466" y="103" />
            </Array>
          </mxGeometry>
        </mxCell>
        <mxCell id="F0aBMFggFQWQViYfeMY5-17" value="&amp;lt;&amp;lt;include&amp;gt;&amp;gt;" style="text;html=1;align=center;verticalAlign=middle;resizable=0;points=[];autosize=1;strokeColor=none;fillColor=none;fontSize=16;" vertex="1" parent="1">
          <mxGeometry x="359" y="104" width="106" height="31" as="geometry" />
        </mxCell>
      </root>
    </mxGraphModel>
  </diagram>
</mxfile>
